<svg width="198" height="102" viewBox="0 0 198 102" fill="none" xmlns="http://www.w3.org/2000/svg">
<rect x="197.625" y="1.52588e-05" width="102" height="197.625" rx="16.575" transform="rotate(90 197.625 1.52588e-05)" fill="#EA7052"/>
<mask id="mask0" mask-type="alpha" maskUnits="userSpaceOnUse" x="0" y="0" width="198" height="102">
<rect x="197.625" y="3.05176e-05" width="102" height="197.625" rx="16.575" transform="rotate(90 197.625 3.05176e-05)" fill="#EA7052"/>
</mask>
<g mask="url(#mask0)">
<path d="M143.785 -15.8334C139.448 1.34739 156.253 11.9408 172.539 11.5974C188.824 11.2539 199.288 -7.61418 188.504 -20.759C177.302 -34.3428 147.339 -30.0345 143.785 -15.8334Z" fill="#68BC98"/>
</g>
<g opacity="0.6">
<path d="M57.3551 19.383H44.2747L27.0866 43.9453L24.3814 33.8535" stroke="#FCFBF9" stroke-width="1.9125" stroke-miterlimit="10" stroke-linejoin="round"/>
<path d="M42.3478 28.3513L54.7603 44.9945" stroke="#FCFBF9" stroke-width="1.9125" stroke-miterlimit="10" stroke-linejoin="round"/>
<path d="M54.7603 28.3513L42.3478 44.9945" stroke="#FCFBF9" stroke-width="1.9125" stroke-miterlimit="10" stroke-linejoin="round"/>
<path d="M24.1692 18.4464L28.3326 24.0272" stroke="#FCFBF9" stroke-width="1.9125" stroke-miterlimit="10" stroke-linejoin="round"/>
<path d="M32.5851 18.4464L24.1692 29.7294" stroke="#FCFBF9" stroke-width="1.9125" stroke-miterlimit="10" stroke-linejoin="round"/>
</g>
</svg>
