<svg width="197" height="102" viewBox="0 0 197 102" fill="none" xmlns="http://www.w3.org/2000/svg">
<rect x="196.35" width="102" height="196.35" rx="16.575" transform="rotate(90 196.35 0)" fill="#506AAC"/>
<mask id="mask0" mask-type="alpha" maskUnits="userSpaceOnUse" x="0" y="0" width="197" height="102">
<rect width="102" height="196.35" rx="16.575" transform="matrix(5.17525e-08 1 1 -3.69197e-08 -6.10352e-05 0)" fill="#7B7FDA"/>
</mask>
<g mask="url(#mask0)">
<path d="M14.534 61.5663C37.7041 57.7046 47.7228 83.7023 39.5616 95.8427C27.0016 114.526 5.82875 112.165 -2.87632 101.827C-16.3422 85.8366 -5.05251 64.8307 14.534 61.5663Z" fill="#FCA964"/>
</g>
<path opacity="0.5" d="M57.853 14.0249H28.8468C28.2641 14.0249 27.7731 14.2268 27.3738 14.6304C26.9746 15.0341 26.7749 15.5305 26.7749 16.1196V35.0041C26.7749 35.5932 26.9746 36.0896 27.3738 36.4932C27.7731 36.8969 28.2641 37.0987 28.8468 37.0987H32.9906V42.3026C32.9906 42.4117 33.0013 42.5153 33.0229 42.6135C33.0445 42.7117 33.0823 42.8044 33.1362 42.8917C33.1902 42.979 33.2603 43.0554 33.3467 43.1208C33.433 43.1863 33.5193 43.2408 33.6056 43.2845C33.6704 43.3063 33.7351 43.3226 33.7999 43.3336C33.8646 43.3445 33.9402 43.3499 34.0265 43.3499C34.3071 43.3499 34.5445 43.2517 34.7387 43.0554L40.7277 37.0987H57.853C58.4357 37.0987 58.9267 36.8969 59.326 36.4932C59.7253 36.0896 59.9249 35.5932 59.9249 35.0041V16.1196C59.9249 15.8796 59.8925 15.6559 59.8278 15.4486C59.763 15.2414 59.6659 15.0504 59.5364 14.8759C59.4069 14.7013 59.2559 14.5486 59.0832 14.4177C58.9105 14.2868 58.7163 14.1886 58.5005 14.1231C58.2847 14.0577 58.0689 14.0249 57.853 14.0249ZM57.853 35.0041H39.886L35.0624 39.8152V35.0041H28.8468V16.1196H57.853V35.0041ZM34.0265 26.6255H52.6733C52.9539 26.6255 53.1967 26.5219 53.4017 26.3146C53.6068 26.1073 53.7093 25.8619 53.7093 25.5782C53.7093 25.2946 53.6068 25.0491 53.4017 24.8418C53.1967 24.6345 52.9539 24.5309 52.6733 24.5309H34.0265C33.7459 24.5309 33.5031 24.6345 33.2981 24.8418C33.0931 25.0491 32.9906 25.2946 32.9906 25.5782C32.9906 25.8619 33.0931 26.1073 33.2981 26.3146C33.5031 26.5219 33.7459 26.6255 34.0265 26.6255ZM34.0265 22.4362H52.6733C52.9539 22.4362 53.1967 22.3326 53.4017 22.1253C53.6068 21.918 53.7093 21.6726 53.7093 21.3889C53.7093 21.1053 53.6068 20.8598 53.4017 20.6525C53.1967 20.4452 52.9539 20.3416 52.6733 20.3416H34.0265C33.7459 20.3416 33.5031 20.4452 33.2981 20.6525C33.0931 20.8598 32.9906 21.1053 32.9906 21.3889C32.9906 21.6726 33.0931 21.918 33.2981 22.1253C33.5031 22.3326 33.7459 22.4362 34.0265 22.4362ZM34.0265 30.8148H46.4577C46.7383 30.8148 46.9811 30.7112 47.1861 30.5039C47.3911 30.2966 47.4937 30.0511 47.4937 29.7675C47.4937 29.4838 47.3911 29.2384 47.1861 29.0311C46.9811 28.8238 46.7383 28.7202 46.4577 28.7202H34.0265C33.7459 28.7202 33.5031 28.8238 33.2981 29.0311C33.0931 29.2384 32.9906 29.4838 32.9906 29.7675C32.9906 30.0511 33.0931 30.2966 33.2981 30.5039C33.5031 30.7112 33.7459 30.8148 34.0265 30.8148Z" fill="white"/>
</svg>
