<svg width="142" height="6" viewBox="0 0 142 6" fill="none" xmlns="http://www.w3.org/2000/svg">
<path opacity="0.1" d="M138.936 0.486079C140.403 0.486079 141.591 1.67475 141.591 3.14106V3.14106C141.591 4.60736 140.403 5.79603 138.936 5.79603L3.5324 5.79602C2.0661 5.79602 0.877411 4.60735 0.877411 3.14105V3.14105C0.877411 1.67474 2.06608 0.486069 3.53239 0.486069L138.936 0.486079Z" fill="#313848"/>
<path d="M65.7273 0.486079C67.1937 0.486079 68.3823 1.67475 68.3823 3.14105C68.3823 4.60736 67.1937 5.79603 65.7273 5.79603L3.5326 5.79603C2.0663 5.79603 0.877624 4.60735 0.877624 3.14105C0.877624 1.67475 2.0663 0.486074 3.5326 0.486075L65.7273 0.486079Z" fill="#68BC98"/>
</svg>
