<svg width="390" height="383" viewBox="0 0 390 383" fill="none" xmlns="http://www.w3.org/2000/svg">
<path d="M138.559 207.848C170.3 187.047 123.03 75.3731 146.126 65.7239C169.221 56.0747 167.811 155.695 176.31 156.935C189.739 158.896 199.644 25.794 225.142 29.5164C250.64 33.2388 201.397 165.893 217.576 171.64C238.209 178.993 260.311 56.3518 284.578 68.575C299.902 76.3243 226.255 186.622 256.379 203.346C277.792 215.196 293.496 128.948 322.09 139.155C342.723 146.507 234.215 351.282 186.855 353.786C164.991 354.935 130.863 348.173 116.457 330.488C96.3803 305.813 109.43 266.051 91.1376 235.647C59.6621 183.309 34.2236 149.214 48.8195 138.324C73.146 120.174 114.869 223.4 138.559 207.848ZM171.349 209.162C171.343 212.503 174.07 215.245 177.41 215.255C191.936 215.336 206.267 221.855 215.78 232.879C222.868 241.162 226.105 250.576 224.812 259.502C223.101 271.318 213.933 282.783 201.983 287.983C196.197 290.48 184.872 293.471 173.519 285.564C158.382 275.021 155.85 259.547 160.001 248.868C162.6 242.303 168.638 235.676 177.768 237.052C185.333 238.157 190.608 242.182 191.217 247.262C191.863 252.391 187.627 257.372 179.859 260.665C176.76 261.992 175.295 265.511 176.625 268.613C177.955 271.715 181.475 273.184 184.574 271.857C199.999 265.428 204.37 254.13 203.281 245.768C201.917 235.109 192.593 226.977 179.504 225.066C166.16 223.118 154.121 230.736 148.665 244.436C144.137 255.927 144.921 271.189 154.587 284.145C157.64 288.237 161.592 292.112 166.516 295.566C178.342 303.802 192.999 305.074 206.747 299.138C222.44 292.358 234.494 277.148 236.748 261.287C238.557 248.791 234.344 235.937 224.904 225.01C213.162 211.404 195.385 203.209 177.422 203.191C174.094 203.096 171.405 205.785 171.349 209.162Z" fill="#FCFBF9"/>
</svg>
